<svg width="13" height="12" viewBox="0 0 13 12" fill="none" xmlns="http://www.w3.org/2000/svg">
<path d="M5.33771 9.20343H0.902771" stroke="#92959E" stroke-width="1.05582" stroke-linecap="round" stroke-linejoin="round"/>
<path d="M7.31583 2.38107H11.7508" stroke="#92959E" stroke-width="1.05582" stroke-linecap="round" stroke-linejoin="round"/>
<path fill-rule="evenodd" clip-rule="evenodd" d="M4.20878 2.34297C4.20878 1.43098 3.46397 0.69149 2.54542 0.69149C1.62687 0.69149 0.88205 1.43098 0.88205 2.34297C0.88205 3.25495 1.62687 3.99444 2.54542 3.99444C3.46397 3.99444 4.20878 3.25495 4.20878 2.34297Z" stroke="#92959E" stroke-width="1.05582" stroke-linecap="round" stroke-linejoin="round"/>
<path fill-rule="evenodd" clip-rule="evenodd" d="M12.1441 9.17587C12.1441 8.26388 11.3998 7.52439 10.4813 7.52439C9.56217 7.52439 8.81735 8.26388 8.81735 9.17587C8.81735 10.0879 9.56217 10.8273 10.4813 10.8273C11.3998 10.8273 12.1441 10.0879 12.1441 9.17587Z" stroke="#92959E" stroke-width="1.05582" stroke-linecap="round" stroke-linejoin="round"/>
</svg>
