<svg width="15" height="15" viewBox="0 0 15 15" fill="none" xmlns="http://www.w3.org/2000/svg">
<path fill-rule="evenodd" clip-rule="evenodd" d="M7.90329 0.335535C8.0157 0.234641 8.16439 0.181754 8.31658 0.188538C11.5339 0.28485 14.2227 2.62042 14.71 5.742C14.7131 5.76064 14.7131 5.77965 14.71 5.79829C14.7205 5.94599 14.6706 6.0917 14.5713 6.2032C14.472 6.31469 14.3315 6.38278 14.181 6.39241L8.77553 6.74888C8.59677 6.76473 8.41949 6.70591 8.28723 6.58686C8.15497 6.46782 8.08 6.29958 8.08073 6.12349L7.71739 0.813928V0.726374C7.72401 0.577045 7.79089 0.436429 7.90329 0.335535ZM7.53253 8.13724L12.2177 7.83706L12.2495 7.84956C12.4507 7.85285 12.6423 7.93443 12.7822 8.07635C12.9221 8.21827 12.9987 8.4089 12.9953 8.60628C12.8107 11.2966 10.8383 13.5444 8.15414 14.1235C5.46997 14.7026 2.71837 13.474 1.40043 11.1078C1.0129 10.4264 0.768012 9.67581 0.680133 8.90022C0.64605 8.6704 0.631127 8.43824 0.635513 8.20604C0.644396 5.34532 2.68113 2.87611 5.53099 2.27108C5.87599 2.20651 6.22188 2.37876 6.3724 2.6901C6.40987 2.74659 6.43986 2.80753 6.46164 2.87146C6.51507 3.69611 6.57048 4.51296 6.62566 5.32635C6.66924 5.96873 6.71267 6.60896 6.75486 7.24919C6.75268 7.40001 6.77639 7.55011 6.82498 7.69322C6.93937 7.97478 7.22403 8.15342 7.53253 8.13724Z" fill="#FD2254"/>
</svg>
