<svg width="101" height="34" viewBox="0 0 101 34" fill="none" xmlns="http://www.w3.org/2000/svg">
<path d="M39.2916 23.3071V11.313H41.3188L47.1807 19.9285H47.2145V11.313H49.2416V23.3071H47.1638L41.3695 14.8437H41.3357V23.3071H39.2916ZM54.524 23.4422C52.4631 23.4422 51.4326 22.3217 51.4326 20.0805V15.0633H53.3246V19.5737C53.3246 20.3733 53.4485 20.9308 53.6963 21.2461C53.9553 21.5615 54.3776 21.7191 54.9632 21.7191C55.5489 21.7191 56.0444 21.4826 56.4498 21.0096C56.8665 20.5254 57.0749 19.8609 57.0749 19.0163V15.0633H58.9669V23.3071H57.0749V22.2766L57.0411 22.2597C56.3879 23.0481 55.5489 23.4422 54.524 23.4422ZM64.7465 23.4422C63.5189 23.4422 62.5109 23.0481 61.7226 22.2597C60.9342 21.4714 60.5401 20.4522 60.5401 19.2021C60.5401 17.9407 60.9399 16.9159 61.7395 16.1275C62.5391 15.3392 63.5639 14.945 64.814 14.945C65.4785 14.945 66.1204 15.0802 66.7398 15.3505C67.3592 15.6095 67.8717 15.9868 68.2771 16.4823L66.9932 17.5972C66.4527 16.9666 65.76 16.6512 64.9154 16.6512C64.1833 16.6512 63.5921 16.8877 63.1416 17.3607C62.6911 17.8225 62.4659 18.4306 62.4659 19.1852C62.4659 19.9397 62.6911 20.5535 63.1416 21.0265C63.5921 21.4883 64.1833 21.7191 64.9154 21.7191C65.8163 21.7191 66.509 21.3982 66.9932 20.7562L68.294 21.905C67.5057 22.9298 66.3231 23.4422 64.7465 23.4422ZM69.8013 23.3071V10.8738H71.6933V23.3071H69.8013ZM81.4822 19.0838C81.4822 19.2978 81.4653 19.5399 81.4315 19.8102H75.4176C75.5415 20.4071 75.8118 20.8745 76.2285 21.2124C76.6564 21.5502 77.1914 21.7191 77.8333 21.7191C78.7005 21.7191 79.3931 21.3982 79.9112 20.7562L81.2288 21.8881C80.4292 22.9242 79.2636 23.4422 77.732 23.4422C76.4706 23.4422 75.4401 23.0537 74.6405 22.2766C73.8522 21.4995 73.458 20.4691 73.458 19.1852C73.458 17.9238 73.8409 16.9046 74.6067 16.1275C75.3838 15.3392 76.3805 14.945 77.5968 14.945C78.7455 14.945 79.6803 15.3336 80.4011 16.1106C81.1218 16.8877 81.4822 17.8788 81.4822 19.0838ZM78.8807 17.1073C78.5428 16.8033 78.1092 16.6512 77.5799 16.6512C77.0506 16.6512 76.5945 16.7976 76.2116 17.0904C75.8399 17.3833 75.5865 17.7943 75.4514 18.3236H79.5733C79.4494 17.8056 79.2185 17.4002 78.8807 17.1073ZM86.0184 23.4422C83.9574 23.4422 82.927 22.3217 82.927 20.0805V15.0633H84.819V19.5737C84.819 20.3733 84.9429 20.9308 85.1906 21.2461C85.4497 21.5615 85.872 21.7191 86.4576 21.7191C87.0432 21.7191 87.5388 21.4826 87.9442 21.0096C88.3609 20.5254 88.5693 19.8609 88.5693 19.0163V15.0633H90.4613V23.3071H88.5693V22.2766L88.5355 22.2597C87.8823 23.0481 87.0432 23.4422 86.0184 23.4422ZM95.1597 23.4422C93.842 23.4422 92.7327 23.0424 91.8317 22.2428L92.7777 20.8238C93.4309 21.4658 94.2249 21.7867 95.1597 21.7867C95.5201 21.7867 95.8016 21.7135 96.0043 21.5671C96.207 21.4207 96.3084 21.2236 96.3084 20.9759C96.3084 20.7844 96.1901 20.6267 95.9536 20.5028C95.7284 20.3677 95.3061 20.1931 94.6867 19.9792C93.8758 19.6976 93.2508 19.3597 92.8115 18.9656C92.3836 18.5714 92.1696 18.0083 92.1696 17.2763C92.1696 16.6005 92.4399 16.0431 92.9805 15.6039C93.5323 15.1646 94.2305 14.945 95.0752 14.945C96.1676 14.945 97.1362 15.2885 97.9808 15.9755L97.0348 17.4621C96.4154 16.8765 95.7284 16.5837 94.9738 16.5837C94.7486 16.5837 94.5403 16.6456 94.3488 16.7695C94.1686 16.8821 94.0785 17.0567 94.0785 17.2932C94.0785 17.631 94.5121 17.9633 95.3793 18.2899C96.4492 18.7065 97.1193 19.0106 97.3896 19.2021C97.9527 19.5963 98.2342 20.1762 98.2342 20.9421C98.2342 21.6741 97.9696 22.2766 97.4402 22.7496C96.9222 23.2114 96.162 23.4422 95.1597 23.4422Z" fill="#551FFF"/>
<ellipse cx="16.2265" cy="17.1241" rx="5.40157" ry="17.5461" transform="rotate(-45 16.2265 17.1241)" stroke="#551FFF" stroke-width="2.11163"/>
<ellipse cx="16.2264" cy="17.1241" rx="5.40157" ry="17.5461" transform="rotate(45 16.2264 17.1241)" stroke="#551FFF" stroke-width="2.11163"/>
<circle cx="16.2266" cy="17.1242" r="2.50659" stroke="#551FFF" stroke-width="2.11163"/>
</svg>
