<svg width="18" height="18" viewBox="0 0 18 18" fill="none" xmlns="http://www.w3.org/2000/svg">
<path fill-rule="evenodd" clip-rule="evenodd" d="M6.43083 12.3167H10.222C10.5077 12.3167 10.7447 12.0774 10.7447 11.7888C10.7447 11.5002 10.5077 11.268 10.222 11.268H6.43083C6.1451 11.268 5.90815 11.5002 5.90815 11.7888C5.90815 12.0774 6.1451 12.3167 6.43083 12.3167ZM8.78638 7.74857H6.43083C6.1451 7.74857 5.90815 7.98789 5.90815 8.27648C5.90815 8.56507 6.1451 8.79735 6.43083 8.79735H8.78638C9.07212 8.79735 9.30907 8.56507 9.30907 8.27648C9.30907 7.98789 9.07212 7.74857 8.78638 7.74857ZM13.7598 7.1331C13.9237 7.13121 14.102 7.12915 14.2641 7.12915C14.4383 7.12915 14.5777 7.26993 14.5777 7.4459V13.1051C14.5777 14.8507 13.1769 16.2655 11.4486 16.2655H5.90118C4.08922 16.2655 2.61177 14.7803 2.61177 12.9502V5.36242C2.61177 3.6168 4.01953 2.18793 5.75483 2.18793H9.47633C9.65752 2.18793 9.79691 2.33574 9.79691 2.51171V4.7782C9.79691 6.0663 10.8492 7.12212 12.1246 7.12915C12.4225 7.12915 12.6851 7.13138 12.9149 7.13333C13.0937 7.13485 13.2527 7.13619 13.393 7.13619C13.4922 7.13619 13.6208 7.13471 13.7598 7.1331ZM13.952 6.10573C13.3792 6.10784 12.7039 6.10573 12.2181 6.10081C11.4473 6.10081 10.8124 5.45957 10.8124 4.68108V2.82566C10.8124 2.52229 11.1769 2.37166 11.3853 2.59056C11.7625 2.98671 12.2809 3.53127 12.7969 4.07332C13.3115 4.61382 13.8236 5.15183 14.1911 5.5377C14.3946 5.75098 14.2454 6.10503 13.952 6.10573Z" fill="#FF6A00"/>
</svg>
