<svg width="18" height="18" viewBox="0 0 18 18" fill="none" xmlns="http://www.w3.org/2000/svg">
<path fill-rule="evenodd" clip-rule="evenodd" d="M5.53591 3.08741C5.65288 3.17185 5.84152 3.36581 5.84152 3.36581C6.57385 4.05218 7.67688 5.75934 8.0311 6.62546C8.03851 6.62546 8.24857 7.14045 8.25681 7.38541V7.41801C8.25681 7.79339 8.04675 8.14452 7.70901 8.32426C7.56977 8.39837 7.23112 8.46728 7.06773 8.50053C7.01361 8.51155 6.97873 8.51865 6.97668 8.52073C6.49395 8.5943 5.75338 8.64279 4.94032 8.64279C4.0869 8.64279 3.31421 8.5943 2.83889 8.50401C2.83065 8.50401 2.39653 8.41455 2.25155 8.35687C2.04231 8.26741 1.8652 8.10355 1.75234 7.89956C1.67161 7.73654 1.63207 7.56432 1.63207 7.38541C1.63949 7.1973 1.76058 6.84617 1.8166 6.70739C2.17082 5.79195 3.32986 4.04382 4.0383 3.37417C4.11189 3.29948 4.19564 3.22124 4.25391 3.1668C4.28501 3.13775 4.30885 3.11548 4.32003 3.10413C4.49714 2.96535 4.71461 2.89178 4.94856 2.89178C5.15697 2.89178 5.36621 2.95699 5.53591 3.08741ZM13.055 7.93281C13.055 8.3015 12.761 8.59997 12.3977 8.59997C12.0344 8.59997 11.7403 8.3015 11.7403 7.93281L11.5591 4.70987C11.5591 4.24002 11.9347 3.85962 12.3977 3.85962C12.8606 3.85962 13.2355 4.24002 13.2355 4.70987L13.055 7.93281ZM15.0902 10.0964C15.2994 10.1867 15.4765 10.3497 15.5894 10.5537C15.6701 10.7167 15.7096 10.889 15.7096 11.0687C15.7022 11.256 15.5811 11.608 15.5243 11.7467C15.1709 12.6614 14.011 14.4095 13.3034 15.08C13.2311 15.1529 13.1489 15.2296 13.0908 15.2838L13.0907 15.2839L13.0907 15.2839C13.0582 15.3142 13.0332 15.3375 13.0217 15.3492C12.8438 15.488 12.6271 15.5616 12.394 15.5616C12.1839 15.5616 11.9747 15.4964 11.8058 15.3651C11.6888 15.2815 11.5002 15.0876 11.5002 15.0876C10.767 14.402 9.66483 12.694 9.31061 11.8278C9.30238 11.8278 9.09314 11.3137 9.0849 11.0687V11.0361C9.0849 10.6599 9.29414 10.3088 9.63271 10.129C9.77166 10.0557 10.1092 9.98657 10.273 9.95305C10.3277 9.94185 10.363 9.93463 10.365 9.93254C10.8478 9.85896 11.5883 9.81047 12.4014 9.81047C13.2548 9.81047 14.0275 9.85896 14.5028 9.94926C14.5102 9.94926 14.9452 10.0387 15.0902 10.0964ZM4.94419 9.85352C4.58091 9.85352 4.28683 10.152 4.28683 10.5207L4.1056 13.7435C4.1056 14.2134 4.48124 14.5938 4.94419 14.5938C5.40715 14.5938 5.78197 14.2134 5.78197 13.7435L5.60156 10.5207C5.60156 10.152 5.30748 9.85352 4.94419 9.85352Z" fill="#551FFF"/>
</svg>
